# xmcd
# Copyright (C) 1995-1998 Ti Kan
#
# Track frame offsets:
#       150
#       15528
#       32755
#       47858
#       63158
#
# Disc length: 1107 seconds
#
# Revision: 4
# Processed by: cddbd v1.5.2PL0 Copyright (c) Steve Scherf et al.
# Submitted via: CD-Import v1.0
#
DISCID=37045105
DTITLE=Stereophonics - 
DYEAR=1900
DGENRE=
TTITLE0=So I Told You Something Boy
TTITLE1=Make Mistake
TTITLE2=Our Velocity
TTITLE3=This Train
TTITLE4=Maybe Tomorrow (Live)
EXTD=
EXTT0=
EXTT1=
EXTT2=
EXTT3=
EXTT4=
PLAYORDER=
